<svg width="175" height="31" viewBox="0 0 175 31" fill="none" xmlns="http://www.w3.org/2000/svg">
<path d="M1.08594 15.3125C0.955729 14.5833 0.916667 13.8281 0.96875 13.0469C1.02083 12.2656 1.04688 11.5104 1.04688 10.7812C1.04688 10.0781 0.994792 9.33594 0.890625 8.55469C0.8125 7.7474 0.734375 6.97917 0.65625 6.25C0.604167 5.52083 0.578125 4.85677 0.578125 4.25781C0.604167 3.63281 0.695312 3.15104 0.851562 2.8125C1.0599 2.42188 1.32031 2.1224 1.63281 1.91406C1.94531 1.67969 2.24479 1.41927 2.53125 1.13281C2.86979 1.1849 3.16927 1.28906 3.42969 1.44531C3.71615 1.57552 3.95052 1.75781 4.13281 1.99219C4.34115 2.20052 4.48438 2.42188 4.5625 2.65625C4.66667 2.89062 4.69271 3.125 4.64062 3.35938C5.29167 3.75 5.8125 4.28385 6.20312 4.96094C6.61979 5.61198 6.93229 6.34115 7.14062 7.14844C7.375 7.92969 7.53125 8.76302 7.60938 9.64844C7.71354 10.5339 7.79167 11.4062 7.84375 12.2656C7.92188 13.125 7.98698 13.9453 8.03906 14.7266C8.11719 15.4818 8.2474 16.1458 8.42969 16.7188C9.57552 15.0521 10.5391 13.5807 11.3203 12.3047C12.1276 11.0026 12.9349 9.76562 13.7422 8.59375C14.5495 7.39583 15.4479 6.1849 16.4375 4.96094C17.4531 3.73698 18.7422 2.35677 20.3047 0.820312C20.6432 0.872396 20.9036 0.9375 21.0859 1.01562C21.2682 1.09375 21.4505 1.17188 21.6328 1.25C21.8151 1.32812 22.0104 1.39323 22.2188 1.44531C22.4271 1.47135 22.7135 1.45833 23.0781 1.40625C23.2083 1.71875 23.2995 1.95312 23.3516 2.10938C23.4297 2.23958 23.4948 2.36979 23.5469 2.5C23.599 2.63021 23.6641 2.79948 23.7422 3.00781C23.8203 3.21615 23.9375 3.52865 24.0938 3.94531C24.1719 4.04948 24.1979 4.19271 24.1719 4.375C24.1719 4.53125 24.1589 4.67448 24.1328 4.80469C24.1068 4.9349 24.0938 5.03906 24.0938 5.11719C24.1198 5.19531 24.2109 5.19531 24.3672 5.11719C24.263 5.5599 24.0938 5.96354 23.8594 6.32812C23.625 6.66667 23.5208 7.08333 23.5469 7.57812C22.8438 8.51562 22.0625 9.47917 21.2031 10.4688C20.3438 11.4583 19.4844 12.5 18.625 13.5938C17.7656 14.6615 16.9323 15.7812 16.125 16.9531C15.3438 18.099 14.6797 19.3229 14.1328 20.625C13.9766 20.625 13.8594 20.6641 13.7812 20.7422C13.7031 20.8203 13.625 20.9115 13.5469 21.0156C13.4948 21.1198 13.4297 21.224 13.3516 21.3281C13.2995 21.4323 13.1953 21.4844 13.0391 21.4844C12.987 22.3177 12.6745 23.112 12.1016 23.8672C11.5547 24.5964 10.9948 25.2214 10.4219 25.7422C10.474 25.9505 10.5 26.1198 10.5 26.25C10.5 26.3802 10.487 26.5104 10.4609 26.6406C10.4349 26.7708 10.4089 26.9141 10.3828 27.0703C10.3828 27.2005 10.3958 27.3698 10.4219 27.5781C10.1875 28.2031 9.875 28.724 9.48438 29.1406C9.11979 29.5573 8.71615 29.8698 8.27344 30.0781C7.83073 30.2865 7.375 30.3646 6.90625 30.3125C6.4375 30.2865 5.99479 30.1302 5.57812 29.8438C5.39583 29.7396 5.23958 29.5964 5.10938 29.4141C4.97917 29.2318 4.83594 29.0625 4.67969 28.9062C4.54948 28.724 4.40625 28.5677 4.25 28.4375C4.11979 28.2812 3.95052 28.1771 3.74219 28.125C3.79427 27.8646 3.79427 27.5911 3.74219 27.3047C3.71615 27.0182 3.66406 26.7578 3.58594 26.5234C3.50781 26.2891 3.41667 26.0938 3.3125 25.9375C3.20833 25.7812 3.10417 25.7031 3 25.7031C2.89583 25.0521 2.7526 24.349 2.57031 23.5938C2.41406 22.8125 2.24479 22.0443 2.0625 21.2891C1.90625 20.5339 1.77604 19.7917 1.67188 19.0625C1.56771 18.3333 1.52865 17.6562 1.55469 17.0312C1.58073 16.7188 1.51562 16.4453 1.35938 16.2109C1.22917 15.9505 1.13802 15.651 1.08594 15.3125ZM28.0391 26.3281C27.7786 26.5365 27.6224 26.8099 27.5703 27.1484C27.5182 27.4609 27.4531 27.7734 27.375 28.0859C27.2969 28.3984 27.1536 28.6719 26.9453 28.9062C26.763 29.1146 26.4245 29.2057 25.9297 29.1797C25.8255 29.3099 25.7995 29.388 25.8516 29.4141C25.9297 29.4401 25.9948 29.5573 26.0469 29.7656C25.6823 29.7135 25.4219 29.7396 25.2656 29.8438C25.1094 29.9479 24.9141 30.026 24.6797 30.0781C24.0807 29.8958 23.5729 29.5703 23.1562 29.1016C22.7656 28.6068 22.4141 28.0729 22.1016 27.5C21.8151 26.9271 21.5547 26.3411 21.3203 25.7422C21.112 25.1432 20.8906 24.6224 20.6562 24.1797C20.6562 24.0755 20.7083 24.0365 20.8125 24.0625C20.8906 24.0625 20.9688 24.0625 21.0469 24.0625C20.9167 23.8021 20.8255 23.5156 20.7734 23.2031C20.6953 22.8646 20.5651 22.5911 20.3828 22.3828C21.138 20.7682 21.9453 19.0885 22.8047 17.3438C23.6641 15.5729 24.5234 13.7891 25.3828 11.9922C26.2682 10.1693 27.1406 8.34635 28 6.52344C28.8854 4.67448 29.7318 2.86458 30.5391 1.09375C31.2682 1.35417 31.9714 1.66667 32.6484 2.03125C33.3516 2.36979 33.9896 2.77344 34.5625 3.24219C35.1354 3.71094 35.6172 4.25781 36.0078 4.88281C36.4245 5.48177 36.6979 6.17188 36.8281 6.95312C36.776 7.10938 36.7109 7.16146 36.6328 7.10938C36.5547 7.05729 36.4896 7.08333 36.4375 7.1875C36.5677 7.34375 36.6328 7.46094 36.6328 7.53906C36.6589 7.59115 36.6589 7.65625 36.6328 7.73438C36.6068 7.78646 36.5938 7.86458 36.5938 7.96875C36.5938 8.07292 36.6589 8.21615 36.7891 8.39844C36.6589 8.3724 36.5677 8.39844 36.5156 8.47656C36.4635 8.52865 36.3724 8.52865 36.2422 8.47656C36.3724 8.84115 36.4115 9.1276 36.3594 9.33594C36.3073 9.54427 36.2292 9.73958 36.125 9.92188C36.0208 10.0781 35.9297 10.2604 35.8516 10.4688C35.7995 10.651 35.8255 10.9115 35.9297 11.25C35.8255 11.25 35.7474 11.276 35.6953 11.3281C35.6693 11.3542 35.6432 11.3932 35.6172 11.4453C35.5911 11.4974 35.5521 11.5495 35.5 11.6016C35.474 11.6276 35.4089 11.6276 35.3047 11.6016C35.3828 12.2786 35.4089 12.9688 35.3828 13.6719C35.3568 14.349 35.3307 15.0521 35.3047 15.7812C35.2786 16.4844 35.2786 17.2135 35.3047 17.9688C35.3307 18.724 35.4349 19.5052 35.6172 20.3125C36.737 19.6615 37.6354 18.8151 38.3125 17.7734C39.0156 16.7318 39.5625 15.5729 39.9531 14.2969C40.3698 13.0208 40.6823 11.6536 40.8906 10.1953C41.125 8.73698 41.3594 7.2526 41.5938 5.74219C41.8802 5.45573 42.1016 5.10417 42.2578 4.6875C42.4401 4.27083 42.5833 3.84115 42.6875 3.39844C42.8177 2.95573 42.9349 2.51302 43.0391 2.07031C43.1693 1.60156 43.3385 1.1849 43.5469 0.820312C44.0156 0.872396 44.4062 1.01562 44.7188 1.25C45.0573 1.45833 45.3698 1.70573 45.6562 1.99219C45.9427 2.2526 46.2422 2.5 46.5547 2.73438C46.8672 2.96875 47.2578 3.125 47.7266 3.20312C48.0911 3.72396 48.4297 4.23177 48.7422 4.72656C49.0547 5.19531 49.263 5.72917 49.3672 6.32812C49.2109 6.58854 49.0938 6.875 49.0156 7.1875C48.9375 7.5 48.8464 7.8125 48.7422 8.125C48.6641 8.4375 48.5469 8.72396 48.3906 8.98438C48.2344 9.24479 48.013 9.46615 47.7266 9.64844C47.6484 10.4297 47.5312 11.1589 47.375 11.8359C47.2188 12.513 47.0755 13.1771 46.9453 13.8281C46.8151 14.4792 46.6979 15.1562 46.5938 15.8594C46.4896 16.5625 46.4505 17.3307 46.4766 18.1641C46.2422 18.9193 45.9818 19.7005 45.6953 20.5078C45.4089 21.2891 45.2005 22.0182 45.0703 22.6953C44.5755 23.0859 44.1849 23.5677 43.8984 24.1406C43.612 24.7135 43.3125 25.2865 43 25.8594C42.8698 25.9635 42.7917 25.9896 42.7656 25.9375C42.7396 25.8594 42.6224 25.8073 42.4141 25.7812C42.4401 26.0156 42.388 26.1719 42.2578 26.25C42.1536 26.3021 42.1667 26.4844 42.2969 26.7969C41.8542 27.0052 41.4635 27.2786 41.125 27.6172C40.7865 27.9557 40.4089 28.2682 39.9922 28.5547C39.6016 28.8411 39.1328 29.0365 38.5859 29.1406C38.0651 29.2188 37.375 29.1016 36.5156 28.7891C35.2396 27.8516 34.0938 26.7708 33.0781 25.5469C32.0625 24.3229 31.2552 22.8776 30.6562 21.2109C30.3958 21.2891 30.2005 21.4583 30.0703 21.7188C29.9401 21.9792 29.8229 22.2526 29.7188 22.5391C29.6146 22.8255 29.5104 23.0859 29.4062 23.3203C29.3021 23.5547 29.1458 23.6719 28.9375 23.6719C28.8854 23.9062 28.7812 24.1276 28.625 24.3359C28.4948 24.5182 28.3646 24.7135 28.2344 24.9219C28.1042 25.1042 28 25.3125 27.9219 25.5469C27.8698 25.7812 27.9089 26.0417 28.0391 26.3281ZM68.6641 18.3594C69.0547 18.4115 69.3281 18.5026 69.4844 18.6328C69.6667 18.763 69.7839 18.9323 69.8359 19.1406C69.9141 19.3229 69.9401 19.5312 69.9141 19.7656C69.888 20 69.875 20.2344 69.875 20.4688C69.224 20.9115 68.3255 21.224 67.1797 21.4062C66.0339 21.5625 64.8359 21.6797 63.5859 21.7578C62.3359 21.8099 61.125 21.8359 59.9531 21.8359C58.7812 21.8359 57.8568 21.875 57.1797 21.9531C55.7734 22.1094 54.6797 22.2656 53.8984 22.4219C53.1432 22.5521 52.6224 22.6823 52.3359 22.8125C51.8411 22.7865 51.4505 22.6953 51.1641 22.5391C50.8776 22.3828 50.6432 22.2005 50.4609 21.9922C50.2786 21.7578 50.1224 21.4974 49.9922 21.2109C49.862 20.9245 49.7057 20.625 49.5234 20.3125C49.6276 20.1042 49.6536 19.8047 49.6016 19.4141C49.5495 19.0234 49.3932 18.724 49.1328 18.5156C49.3411 18.4896 49.4974 18.3464 49.6016 18.0859C49.7057 17.7995 49.7057 17.5911 49.6016 17.4609C50.0182 17.3568 50.4609 17.2917 50.9297 17.2656C51.4245 17.2135 51.9062 17.1745 52.375 17.1484C52.8438 17.1224 53.2865 17.0833 53.7031 17.0312C54.1458 16.9531 54.5234 16.8359 54.8359 16.6797C56.138 16.6536 57.4792 16.6146 58.8594 16.5625C60.2656 16.5104 61.5807 16.4583 62.8047 16.4062C63.2474 16.5365 63.7682 16.6146 64.3672 16.6406C64.9661 16.6406 65.5521 16.6797 66.125 16.7578C66.6979 16.8099 67.2188 16.9531 67.6875 17.1875C68.1562 17.4219 68.4818 17.8125 68.6641 18.3594ZM75.9688 11.1328C74.875 10.6901 73.9635 10.0651 73.2344 9.25781C72.5312 8.45052 71.9583 7.5 71.5156 6.40625C71.776 5.70312 72.1927 5.11719 72.7656 4.64844C73.3385 4.15365 73.9766 3.73698 74.6797 3.39844C75.4089 3.0599 76.1771 2.78646 76.9844 2.57812C77.7917 2.36979 78.5729 2.1875 79.3281 2.03125C79.4844 2.08333 79.5625 2.08333 79.5625 2.03125C79.5625 1.97917 79.6276 2.00521 79.7578 2.10938C80.6953 1.82292 81.776 1.54948 83 1.28906C84.224 1.0026 85.526 0.898438 86.9062 0.976562C87.0885 0.872396 87.3099 0.820312 87.5703 0.820312C87.8307 0.794271 88.1042 0.78125 88.3906 0.78125C88.6771 0.78125 88.9505 0.78125 89.2109 0.78125C89.4714 0.755208 89.6927 0.703125 89.875 0.625C90.0312 0.807292 90.2656 0.924479 90.5781 0.976562C90.8906 1.0026 91.2161 1.13281 91.5547 1.36719C91.6589 1.39323 91.6589 1.35417 91.5547 1.25C91.4505 1.11979 91.4635 1.02865 91.5938 0.976562C91.9323 0.976562 92.2318 1.05469 92.4922 1.21094C92.7526 1.36719 92.987 1.54948 93.1953 1.75781C93.4297 1.9401 93.638 2.10938 93.8203 2.26562C94.0286 2.42188 94.25 2.5 94.4844 2.5C94.7188 2.78646 94.9922 3.0599 95.3047 3.32031C95.6432 3.55469 95.9557 3.80208 96.2422 4.0625C96.5547 4.32292 96.8021 4.60938 96.9844 4.92188C97.1927 5.23438 97.2969 5.58594 97.2969 5.97656C97.2708 6.13281 97.3229 6.22396 97.4531 6.25C97.5833 6.27604 97.6745 6.35417 97.7266 6.48438C97.7526 7.44792 97.5964 8.28125 97.2578 8.98438C96.9453 9.6875 96.5417 10.3385 96.0469 10.9375C95.5521 11.5104 95.0182 12.0573 94.4453 12.5781C93.8984 13.099 93.3906 13.6589 92.9219 14.2578C93.2344 14.6484 93.5859 15.013 93.9766 15.3516C94.3932 15.6641 94.8099 15.9766 95.2266 16.2891C95.6432 16.6016 96.0339 16.9401 96.3984 17.3047C96.7891 17.6432 97.1146 18.0339 97.375 18.4766C97.4531 18.6328 97.6224 18.737 97.8828 18.7891C97.9609 19.1016 98.0651 19.4271 98.1953 19.7656C98.3516 20.0781 98.4948 20.3906 98.625 20.7031C98.7552 20.9896 98.8333 21.25 98.8594 21.4844C98.8854 21.7188 98.8203 21.9141 98.6641 22.0703C98.8464 22.1745 98.9505 22.3438 98.9766 22.5781C99.0026 22.7865 99.0026 22.9557 98.9766 23.0859C98.4036 23.7891 98.013 24.2839 97.8047 24.5703C97.5964 24.8568 97.4401 25.0651 97.3359 25.1953C97.2318 25.3255 97.1276 25.4427 97.0234 25.5469C96.9193 25.651 96.6849 25.8594 96.3203 26.1719C94.9401 27.0052 93.4948 27.7604 91.9844 28.4375C90.5 29.0885 88.9505 29.5312 87.3359 29.7656C87.2057 29.9479 87.0104 30.0911 86.75 30.1953C86.5156 30.3255 86.2422 30.4297 85.9297 30.5078C85.6172 30.5859 85.2786 30.651 84.9141 30.7031C84.5755 30.7552 84.263 30.8073 83.9766 30.8594C83.8464 30.8073 83.7682 30.7161 83.7422 30.5859C83.7422 30.4818 83.6771 30.4036 83.5469 30.3516C83.5208 30.6641 83.3776 30.8203 83.1172 30.8203C82.8828 30.8464 82.5833 30.7943 82.2188 30.6641C81.8542 30.5339 81.4766 30.3516 81.0859 30.1172C80.6953 29.8828 80.3568 29.6615 80.0703 29.4531C79.9401 29.6875 79.7708 29.9349 79.5625 30.1953C79.3802 30.4557 79.1849 30.638 78.9766 30.7422C78.612 30.6901 78.3385 30.651 78.1562 30.625C78 30.599 77.8438 30.6641 77.6875 30.8203C77.4792 30.7161 77.3229 30.599 77.2188 30.4688C77.1146 30.3646 77.0104 30.2474 76.9062 30.1172C76.8021 30.013 76.6849 29.9219 76.5547 29.8438C76.4245 29.7396 76.2292 29.6484 75.9688 29.5703C76.0208 29.4401 75.9818 29.2448 75.8516 28.9844C75.7214 28.6979 75.5391 28.5286 75.3047 28.4766C75.4349 28.2682 75.3828 28.0078 75.1484 27.6953C74.9141 27.3568 74.7318 26.9792 74.6016 26.5625C74.6276 26.3802 74.6406 26.1979 74.6406 26.0156C74.6667 25.8073 74.6927 25.625 74.7188 25.4688C74.7708 25.2865 74.8359 25.1302 74.9141 25C74.9922 24.8698 75.1224 24.7786 75.3047 24.7266C75.2786 24.388 75.1745 24.0625 74.9922 23.75C75.2266 23.5677 75.3828 23.3464 75.4609 23.0859C75.5391 22.7995 75.6042 22.513 75.6562 22.2266C75.7344 21.9401 75.8255 21.6667 75.9297 21.4062C76.0339 21.1198 76.2031 20.8854 76.4375 20.7031C76.3854 20.625 76.3333 20.5599 76.2812 20.5078C76.2292 20.4557 76.2031 20.3646 76.2031 20.2344C76.5938 19.5833 76.8672 19.0365 77.0234 18.5938C77.1797 18.125 77.2969 17.6823 77.375 17.2656C77.4792 16.8229 77.5833 16.3542 77.6875 15.8594C77.7917 15.3646 78 14.7396 78.3125 13.9844C78.2865 13.5156 78.3385 13.099 78.4688 12.7344C78.599 12.3698 78.7292 12.0182 78.8594 11.6797C79.0156 11.3151 79.1328 10.9375 79.2109 10.5469C79.2891 10.1562 79.276 9.70052 79.1719 9.17969C78.7292 9.23177 78.4036 9.38802 78.1953 9.64844C78.013 9.90885 77.8958 10.2604 77.8438 10.7031C77.6094 10.9115 77.3099 11.0156 76.9453 11.0156C76.5807 10.9896 76.2552 11.0286 75.9688 11.1328ZM93.1562 18.6719C92.1667 18.125 91.2552 17.7995 90.4219 17.6953C89.6146 17.5911 88.8333 17.6042 88.0781 17.7344C87.349 17.8385 86.6458 17.9948 85.9688 18.2031C85.2917 18.4115 84.6146 18.5677 83.9375 18.6719C83.599 19.5573 83.2474 20.5339 82.8828 21.6016C82.5182 22.6693 82.1667 23.7109 81.8281 24.7266C82.7656 24.5964 83.625 24.401 84.4062 24.1406C85.1875 23.8802 85.9427 23.5938 86.6719 23.2812C87.401 22.9427 88.1172 22.6172 88.8203 22.3047C89.5234 21.9661 90.2526 21.6536 91.0078 21.3672C91.0859 21.0547 91.2552 20.8073 91.5156 20.625C91.776 20.4427 92.0365 20.2734 92.2969 20.1172C92.5573 19.9349 92.7786 19.7396 92.9609 19.5312C93.1432 19.3229 93.2083 19.0365 93.1562 18.6719ZM90.4219 6.44531C88.8073 6.39323 87.2188 6.53646 85.6562 6.875C84.0938 7.21354 82.7786 7.70833 81.7109 8.35938C82.2318 8.80208 82.7656 9.19271 83.3125 9.53125C83.8854 9.86979 84.3151 10.3255 84.6016 10.8984C85.8516 10.4036 86.9453 9.77865 87.8828 9.02344C88.8203 8.24219 89.6667 7.38281 90.4219 6.44531ZM110.5 29.5703C109.771 29.8047 108.977 30.0391 108.117 30.2734C107.258 30.5078 106.398 30.625 105.539 30.625C104.237 30.625 103.208 30.2995 102.453 29.6484C102.323 29.362 102.206 29.1667 102.102 29.0625C102.023 28.9583 101.945 28.8542 101.867 28.75C101.815 28.6198 101.776 28.4505 101.75 28.2422C101.438 27.8776 101.19 27.4609 101.008 26.9922C100.826 26.4974 100.695 26.0026 100.617 25.5078C100.565 24.987 100.552 24.4661 100.578 23.9453C100.63 23.4245 100.721 22.9297 100.852 22.4609C100.904 22.3568 100.93 22.2526 100.93 22.1484C100.956 22.0443 100.982 21.9271 101.008 21.7969C101.112 21.3802 101.216 20.9766 101.32 20.5859C101.451 20.1953 101.62 19.8568 101.828 19.5703C101.724 19.3359 101.724 19.0755 101.828 18.7891C101.932 18.5026 102.049 18.2422 102.18 18.0078C102.544 17.0182 102.844 16.1849 103.078 15.5078C103.339 14.8047 103.599 14.1146 103.859 13.4375C104.302 12.2656 104.719 11.1068 105.109 9.96094C105.5 8.8151 105.852 7.57812 106.164 6.25C106.372 6.11979 106.529 6.02865 106.633 5.97656C106.789 5.92448 106.919 5.88542 107.023 5.85938C107.492 6.09375 108.039 6.32812 108.664 6.5625C109.289 6.77083 109.81 6.875 110.227 6.875C110.435 7.00521 110.565 7.10938 110.617 7.1875C110.669 7.23958 110.721 7.29167 110.773 7.34375C111.06 7.68229 111.307 8.03385 111.516 8.39844C111.724 8.73698 111.789 9.19271 111.711 9.76562C111.555 10 111.438 10.1172 111.359 10.1172C111.229 10.638 111.086 11.0807 110.93 11.4453C110.799 11.8099 110.656 12.1745 110.5 12.5391C110.318 12.9297 110.148 13.3203 109.992 13.7109C109.836 14.1016 109.706 14.5833 109.602 15.1562C109.497 15.2865 109.419 15.4036 109.367 15.5078C109.341 15.612 109.302 15.7292 109.25 15.8594C109.198 15.9896 109.133 16.1328 109.055 16.2891C109.003 16.4193 108.911 16.5365 108.781 16.6406C108.703 17.3177 108.573 17.8646 108.391 18.2812C108.234 18.6979 108.065 19.1146 107.883 19.5312C107.57 20.2865 107.284 21.0417 107.023 21.7969C106.789 22.5521 106.646 23.4115 106.594 24.375C106.724 24.3229 106.841 24.2969 106.945 24.2969C107.076 24.2969 107.193 24.2969 107.297 24.2969C107.531 24.2969 107.805 24.3359 108.117 24.4141C108.898 23.9974 109.745 23.75 110.656 23.6719C111.594 23.5938 112.518 23.5417 113.43 23.5156C113.794 23.5156 114.159 23.5156 114.523 23.5156C114.888 23.5156 115.227 23.4896 115.539 23.4375C115.773 23.5677 115.917 23.6458 115.969 23.6719C116.047 23.6719 116.151 23.6719 116.281 23.6719C116.464 23.6719 116.62 23.6849 116.75 23.7109C117.062 23.9974 117.362 24.2057 117.648 24.3359C117.935 24.4661 118.234 24.5833 118.547 24.6875C118.833 24.7917 119.107 24.9089 119.367 25.0391C119.654 25.1432 119.927 25.2995 120.188 25.5078L120.461 27.1875C120.643 27.4219 120.721 27.5781 120.695 27.6562C120.695 27.8646 120.643 28.0208 120.539 28.125L120.617 28.5547C120.227 28.6328 119.953 28.724 119.797 28.8281C119.667 28.9323 119.536 29.0495 119.406 29.1797C119.198 29.2057 119.042 29.2188 118.938 29.2188C118.859 29.2188 118.781 29.2188 118.703 29.2188C118.339 29.2188 117.896 29.2839 117.375 29.4141C116.672 29.1797 115.943 29.0625 115.188 29.0625C114.901 29.0625 114.602 29.0755 114.289 29.1016C113.977 29.1276 113.664 29.1536 113.352 29.1797C113.039 29.2318 112.714 29.2708 112.375 29.2969C112.062 29.3229 111.737 29.3359 111.398 29.3359L110.5 29.5703ZM144.289 18.2812C144.263 18.5938 144.289 18.8932 144.367 19.1797C144.445 19.4661 144.536 19.7526 144.641 20.0391C144.771 20.2995 144.888 20.5729 144.992 20.8594C145.096 21.1458 145.174 21.4323 145.227 21.7188C145.279 22.0833 145.279 22.487 145.227 22.9297C145.174 23.3464 145.083 23.763 144.953 24.1797C144.823 24.5703 144.654 24.9349 144.445 25.2734C144.237 25.5859 143.99 25.8203 143.703 25.9766C143.339 26.4453 142.896 26.8099 142.375 27.0703C141.854 27.3307 141.372 27.6432 140.93 28.0078C140.643 28.1901 140.318 28.3203 139.953 28.3984C139.615 28.4766 139.263 28.5547 138.898 28.6328C138.612 28.7891 138.273 28.9583 137.883 29.1406C137.492 29.2969 137.089 29.4531 136.672 29.6094C136.255 29.7396 135.839 29.8438 135.422 29.9219C135.005 29.974 134.641 29.987 134.328 29.9609C133.547 30.2474 132.779 30.4297 132.023 30.5078C131.294 30.612 130.435 30.5599 129.445 30.3516C128.508 30.4818 127.635 30.4427 126.828 30.2344C126.047 30.026 125.344 29.7005 124.719 29.2578C124.12 28.7891 123.586 28.2422 123.117 27.6172C122.674 26.9661 122.31 26.2891 122.023 25.5859C121.815 24.1016 121.867 22.7604 122.18 21.5625C122.492 20.3385 122.935 19.2188 123.508 18.2031C124.107 17.1615 124.784 16.2109 125.539 15.3516C126.294 14.4661 127.023 13.6068 127.727 12.7734C127.883 12.8255 128 12.8255 128.078 12.7734C128.182 12.6953 128.273 12.6042 128.352 12.5C128.43 12.3698 128.508 12.2526 128.586 12.1484C128.69 12.0443 128.807 11.9792 128.938 11.9531C129.12 11.5625 129.38 11.276 129.719 11.0938C130.083 10.8854 130.37 10.599 130.578 10.2344C130.812 10.1823 131.008 10.1042 131.164 10C131.32 9.89583 131.464 9.77865 131.594 9.64844C131.75 9.51823 131.906 9.40104 132.062 9.29688C132.219 9.16667 132.401 9.07552 132.609 9.02344V8.59375C133.078 8.38542 133.417 8.15104 133.625 7.89062C133.859 7.60417 134.133 7.26562 134.445 6.875C134.68 6.84896 134.862 6.83594 134.992 6.83594C135.148 6.83594 135.37 6.8099 135.656 6.75781C135.865 6.39323 136.047 6.11979 136.203 5.9375C136.385 5.75521 136.646 5.5599 136.984 5.35156C137.297 5.50781 137.635 5.61198 138 5.66406C138.391 5.71615 138.729 5.88542 139.016 6.17188C139.042 6.43229 139.12 6.64062 139.25 6.79688C139.38 6.92708 139.523 7.05729 139.68 7.1875C139.836 7.29167 139.979 7.40885 140.109 7.53906C140.266 7.66927 140.37 7.85156 140.422 8.08594C140.526 8.11198 140.591 8.09896 140.617 8.04688C140.669 7.99479 140.747 7.98177 140.852 8.00781C140.93 8.3724 141.021 8.61979 141.125 8.75C141.229 8.85417 141.333 9.07552 141.438 9.41406C141.307 9.67448 141.203 9.94792 141.125 10.2344C141.073 10.4948 140.917 10.6901 140.656 10.8203C140.63 11.0026 140.682 11.1068 140.812 11.1328C140.943 11.1328 141.021 11.1979 141.047 11.3281C141.073 11.5625 141.034 11.7318 140.93 11.8359C141.555 12.8516 142.115 13.9323 142.609 15.0781C143.104 16.1979 143.664 17.2656 144.289 18.2812ZM139.406 21.9922C139.51 21.7057 139.641 21.4714 139.797 21.2891C139.979 21.1068 140.083 20.8333 140.109 20.4688C139.979 20.2604 139.901 20.1042 139.875 20C139.849 19.8698 139.836 19.6745 139.836 19.4141C139.263 18.6068 138.768 17.7474 138.352 16.8359C137.935 15.8984 137.466 15.026 136.945 14.2188C136.893 14.3229 136.802 14.4271 136.672 14.5312C136.542 14.6354 136.398 14.6094 136.242 14.4531C136.19 14.6615 136.099 14.8177 135.969 14.9219C135.839 15 135.695 15.0391 135.539 15.0391C135.383 15.013 135.214 14.974 135.031 14.9219C134.875 14.8438 134.732 14.7526 134.602 14.6484C133.846 15.2474 133.091 15.8333 132.336 16.4062C131.581 16.9792 130.904 17.6432 130.305 18.3984C130.201 18.4505 130.135 18.4766 130.109 18.4766C130.083 18.4505 130.005 18.4635 129.875 18.5156C129.667 19.0104 129.406 19.4661 129.094 19.8828C128.807 20.2734 128.521 20.6771 128.234 21.0938C127.948 21.5104 127.701 21.9531 127.492 22.4219C127.284 22.8906 127.167 23.4375 127.141 24.0625C127.583 24.4271 128.104 24.6484 128.703 24.7266C129.302 24.8047 129.914 24.8177 130.539 24.7656C131.19 24.7135 131.815 24.6354 132.414 24.5312C133.039 24.401 133.612 24.3359 134.133 24.3359C135.227 24.0755 136.164 23.737 136.945 23.3203C137.727 22.8776 138.547 22.4349 139.406 21.9922ZM174.367 22.9688C173.742 24.0885 172.922 24.9609 171.906 25.5859C170.891 26.1849 169.771 26.6927 168.547 27.1094C167.323 27.5 166.034 27.8516 164.68 28.1641C163.352 28.4766 162.062 28.8802 160.812 29.375C160.448 29.375 160.122 29.388 159.836 29.4141C159.576 29.4401 159.315 29.4792 159.055 29.5312C158.82 29.5573 158.586 29.5964 158.352 29.6484C158.117 29.6745 157.857 29.7005 157.57 29.7266C157.466 29.7005 157.401 29.7266 157.375 29.8047C157.349 29.8568 157.31 29.9089 157.258 29.9609C156.815 30.0391 156.411 30.0781 156.047 30.0781C155.708 30.0781 155.422 30.0781 155.188 30.0781C154.875 30.0781 154.549 30.1172 154.211 30.1953C153.898 30.2995 153.612 30.3385 153.352 30.3125C151.398 30.2083 149.862 29.5182 148.742 28.2422C147.648 26.9401 147.036 25.1432 146.906 22.8516C146.932 22.7214 146.906 22.6432 146.828 22.6172C146.776 22.5911 146.724 22.5521 146.672 22.5C146.672 22.2396 146.698 22.0182 146.75 21.8359C146.828 21.6536 146.841 21.4193 146.789 21.1328C147.466 19.7005 148.234 18.3724 149.094 17.1484C149.953 15.8984 150.982 14.8047 152.18 13.8672C152.362 13.7109 152.518 13.5547 152.648 13.3984C152.779 13.2422 152.896 13.0859 153 12.9297C153.13 12.7734 153.273 12.6432 153.43 12.5391C153.586 12.4089 153.781 12.3177 154.016 12.2656C154.562 11.6406 155.214 11.0677 155.969 10.5469C156.724 10.026 157.518 9.53125 158.352 9.0625C159.185 8.56771 160.005 8.08594 160.812 7.61719C161.646 7.1224 162.401 6.57552 163.078 5.97656C163.365 6.10677 163.573 6.14583 163.703 6.09375C163.833 6.04167 163.977 6.04167 164.133 6.09375C164.315 6.48438 164.562 6.75781 164.875 6.91406C165.214 7.07031 165.539 7.23958 165.852 7.42188C166.19 7.57812 166.503 7.77344 166.789 8.00781C167.076 8.24219 167.297 8.55469 167.453 8.94531C167.297 8.94531 167.219 9.01042 167.219 9.14062C167.245 9.24479 167.284 9.36198 167.336 9.49219C167.388 9.59635 167.401 9.71354 167.375 9.84375C167.375 9.94792 167.284 10 167.102 10C167.128 10.1302 167.206 10.2083 167.336 10.2344C167.492 10.2344 167.57 10.2995 167.57 10.4297C167.57 10.5599 167.531 10.6641 167.453 10.7422C167.401 10.8203 167.401 10.9505 167.453 11.1328C166.932 11.4714 166.346 11.7969 165.695 12.1094C165.07 12.4219 164.406 12.7604 163.703 13.125C163.026 13.4635 162.31 13.8411 161.555 14.2578C160.826 14.6484 160.109 15.1042 159.406 15.625C158.703 16.1458 157.987 16.7318 157.258 17.3828C156.529 18.0078 155.826 18.6719 155.148 19.375C154.471 20.0781 153.833 20.8073 153.234 21.5625C152.635 22.2917 152.128 23.0208 151.711 23.75C151.763 23.8802 151.815 23.9844 151.867 24.0625C151.945 24.1146 152.01 24.2057 152.062 24.3359C152.896 24.388 153.664 24.388 154.367 24.3359C155.096 24.2578 155.826 24.2969 156.555 24.4531C156.633 24.401 156.685 24.3229 156.711 24.2188C156.737 24.1146 156.802 24.0365 156.906 23.9844C158.391 23.8281 159.771 23.5938 161.047 23.2812C162.323 22.9427 163.625 22.5911 164.953 22.2266C164.745 22.1484 164.549 22.0833 164.367 22.0312C164.211 21.9531 164.055 21.888 163.898 21.8359C163.768 21.7057 163.768 21.6016 163.898 21.5234C164.055 21.4193 164.185 21.3151 164.289 21.2109C163.924 21.0026 163.625 20.7422 163.391 20.4297C163.182 20.1172 163.052 19.7005 163 19.1797C163.156 19.0495 163.234 18.8932 163.234 18.7109C163.234 18.5286 163.156 18.3854 163 18.2812C162.896 18.2552 162.831 18.2552 162.805 18.2812C162.779 18.3073 162.753 18.3464 162.727 18.3984C162.727 18.4505 162.714 18.5026 162.688 18.5547C162.661 18.5807 162.596 18.5677 162.492 18.5156C162.518 18.2812 162.57 18.0859 162.648 17.9297C162.753 17.7734 162.831 17.5911 162.883 17.3828L165.578 15.5859C165.865 15.7943 166.216 16.0286 166.633 16.2891C167.049 16.5234 167.479 16.7708 167.922 17.0312C168.391 17.2656 168.859 17.513 169.328 17.7734C169.823 18.0078 170.279 18.2422 170.695 18.4766C171.06 18.6328 171.385 18.8411 171.672 19.1016C171.958 19.362 172.232 19.6354 172.492 19.9219C172.753 20.1823 173.013 20.4427 173.273 20.7031C173.56 20.9635 173.885 21.1849 174.25 21.3672C174.198 21.7057 174.211 21.9792 174.289 22.1875C174.367 22.3958 174.393 22.6562 174.367 22.9688Z" fill="black"/>
</svg>
